# xmcd
#
# Track frame offsets:
#	150
#	14251
#	26289
#	41754
#	59466
#	72617
#	87134
#	101318
#	113390
#	130717
#	150069
#	167149
#	179713
#	192748
#	207932
#	223005
#	236113
#	249130
#
# Disc length: 3563 seconds
#
# Revision: 1
# Processed by: cddbd v1.5.1PL2 Copyright (c) Steve Scherf et al.
# Submitted via: audiograbber 1.83.01
#
DISCID=ef0de912
DTITLE=Manuel and His Music From the Mountains - Somewhere My Love
DYEAR=1900
DGENRE=
TTITLE0=Somewhere My Love
TTITLE1=Sunrise, Sunset
TTITLE2=Theme From "Love Story"
TTITLE3=The Shadow Of Your Smile (From "The Sandpiper")
TTITLE4=Spanish Harlem
TTITLE5=Strangers In The Night
TTITLE6=If
TTITLE7=Cuando Calienta Al Sol
TTITLE8=Love Theme
TTITLE9=Moonlight Serenade
TTITLE10=Women In Love
TTITLE11=Over The Rainbow (From "The Wizard Of Oz")
TTITLE12=Love Theme
TTITLE13=Stardust
TTITLE14=Tara Theme
TTITLE15=Quando, Quando, Quando
TTITLE16=Arrivederci Roma
TTITLE17=Rodrigo's guitar concerto de Aranjuez (2nd movement)
EXTD=
EXTT0=
EXTT1=
EXTT2=
EXTT3=
EXTT4=
EXTT5=
EXTT6=
EXTT7=
EXTT8=
EXTT9=
EXTT10=
EXTT11=
EXTT12=
EXTT13=
EXTT14=
EXTT15=
EXTT16=
EXTT17=
PLAYORDER=
